<svg width="500" height="500" viewBox="0 0 500 500" fill="none" xmlns="http://www.w3.org/2000/svg">
<rect width="500" height="500" fill="white"/>
<path d="M250 500C388.071 500 500 388.071 500 250C500 111.929 388.071 0 250 0C111.929 0 0 111.929 0 250C0 388.071 111.929 500 250 500Z" fill="#FFE42E"/>
<path d="M340.218 347.016L288.626 295.424C284.265 291.063 281.863 285.265 281.863 279.096C281.863 272.929 284.265 267.13 288.626 262.77L365.05 186.345C367.658 183.737 367.658 179.491 365.05 176.882L336.886 148.717C335.622 147.453 333.942 146.757 332.155 146.757C330.368 146.757 328.687 147.453 327.424 148.717L310.225 165.916L298.628 154.319L315.827 137.12C320.188 132.759 325.988 130.357 332.155 130.357C338.322 130.357 344.121 132.759 348.481 137.12L376.647 165.285C385.649 174.289 385.649 188.936 376.647 197.939L300.221 274.364C298.957 275.628 298.261 277.308 298.261 279.095C298.261 280.882 298.957 282.563 300.22 283.826L351.814 335.418L340.218 347.016Z" fill="#8BB5B5"/>
<path d="M406.032 390.704L395.503 401.233C389.688 407.048 380.26 407.048 374.444 401.233L311.27 338.059C305.455 332.244 305.455 322.816 311.27 317L321.799 306.471C327.614 300.656 337.042 300.656 342.858 306.471L406.032 369.645C411.847 375.461 411.847 384.889 406.032 390.704Z" fill="#D95612"/>
<path d="M134.101 226.073L109.829 250.346L134.101 274.619L158.374 250.346L134.101 226.073Z" fill="#24BFBE"/>
<path d="M297.847 135.111L329.434 166.699C335.246 172.511 335.246 181.946 329.434 187.758L192.555 324.634C186.743 330.446 177.308 330.446 171.497 324.634L139.909 293.046C134.097 287.235 134.097 277.8 139.909 271.988L276.788 135.111C282.6 129.299 292.035 129.299 297.847 135.111Z" fill="#25C4C3"/>
<path d="M158.376 201.801L134.103 226.074L158.376 250.347L182.648 226.074L158.376 201.801Z" fill="#1DDEDD"/>
<path d="M312.061 149.326L329.434 166.699C335.246 172.511 335.246 181.946 329.434 187.758L192.555 324.634C186.743 330.446 177.308 330.446 171.496 324.634L154.123 307.261C159.935 313.073 169.369 313.073 175.181 307.261L312.061 170.384C317.873 164.572 317.873 155.138 312.061 149.326Z" fill="#00AFB3"/>
<path d="M182.312 177.865L158.039 202.138L182.312 226.411L206.584 202.138L182.312 177.865Z" fill="#24BFBE"/>
<path d="M206.584 153.593L182.311 177.866L206.584 202.139L230.857 177.866L206.584 153.593Z" fill="#1DDEDD"/>
<path d="M230.857 129.32L206.584 153.593L230.857 177.865L255.13 153.593L230.857 129.32Z" fill="#1BCFCE"/>
<path d="M255.13 105.047L230.857 129.319L255.13 153.592L279.403 129.319L255.13 105.047Z" fill="#24BFBE"/>
<path d="M109.829 201.801L85.5565 226.074L109.829 250.347L134.102 226.074L109.829 201.801Z" fill="#1BCFCE"/>
<path d="M158.038 153.592L133.766 177.865L158.038 202.138L182.311 177.865L158.038 153.592Z" fill="#1BCFCE"/>
<path d="M206.584 105.047L182.311 129.319L206.584 153.592L230.857 129.319L206.584 105.047Z" fill="#34EDEB"/>
<path d="M230.858 80.7744L206.585 105.047L230.858 129.32L255.131 105.047L230.858 80.7744Z" fill="#1BCFCE"/>
<path d="M133.772 129.313L109.5 153.586L133.772 177.859L158.045 153.586L133.772 129.313Z" fill="#34EDEB"/>
<path d="M206.591 56.4942L182.318 80.767L206.591 105.04L230.864 80.767L206.591 56.4942Z" fill="#34EDEB"/>
<path d="M61.2899 153.249L37.0172 177.522L61.2899 201.794L85.5627 177.522L61.2899 153.249Z" fill="#98EDEB"/>
<path d="M386.026 349.641L395.154 358.769C400.966 364.581 400.966 374.016 395.154 379.828L384.625 390.357C378.813 396.169 369.378 396.169 363.566 390.357L354.438 381.229C360.25 387.041 369.684 387.041 375.496 381.229L386.026 370.699C391.839 364.887 391.839 355.453 386.026 349.641Z" fill="#B53E02"/>
<path d="M133.766 80.7736L109.493 105.046L133.766 129.319L158.039 105.046L133.766 80.7736Z" fill="#98EDEB"/>
<path d="M318.378 155.643L329.433 166.698C335.245 172.51 335.245 181.944 329.433 187.756L192.555 324.634C186.743 330.446 177.308 330.446 171.496 324.634L160.442 313.579C166.253 319.391 175.688 319.391 181.5 313.579L318.378 176.701C324.19 170.889 324.19 161.455 318.378 155.643Z" fill="#00A3A2"/>
<path d="M308.901 146.168L297.846 135.113C292.035 129.301 282.6 129.301 276.788 135.113L139.91 271.989C134.098 277.801 134.098 287.236 139.91 293.048L150.965 304.103C145.153 298.291 145.153 288.856 150.965 283.044L287.843 146.166C293.656 140.356 303.089 140.356 308.901 146.168Z" fill="#39D9D8"/>
<path d="M393.955 357.57L404.831 368.446C410.643 374.258 410.643 383.693 404.831 389.505L394.302 400.034C388.49 405.846 379.056 405.846 373.244 400.034L362.367 389.158C368.179 394.97 377.614 394.97 383.426 389.158L393.955 378.629C399.767 372.815 399.767 363.382 393.955 357.57Z" fill="#A33904"/>
<path d="M352.643 316.258L347.031 310.646C338.309 301.924 324.167 301.924 315.444 310.646C306.722 319.368 306.722 333.511 315.444 342.234L321.055 347.846C315.243 342.034 315.243 332.599 321.055 326.787L331.584 316.258C337.398 310.446 346.831 310.446 352.643 316.258Z" fill="#EB6E2D"/>
<path d="M182.027 335.554C176.296 335.554 170.908 333.324 166.859 329.273L135.271 297.687C131.222 293.636 128.992 288.251 128.992 282.52C128.992 276.789 131.222 271.401 135.271 267.352L272.149 130.473C276.2 126.423 281.585 124.192 287.317 124.192C293.049 124.192 298.434 126.422 302.485 130.473L334.072 162.059C342.435 170.422 342.435 184.031 334.072 192.395L197.194 329.273C193.143 333.322 187.758 335.554 182.027 335.554ZM287.317 137.313C285.09 137.313 282.998 138.179 281.427 139.75L144.549 276.628C142.976 278.2 142.111 280.293 142.111 282.519C142.111 284.744 142.977 286.838 144.549 288.409L176.137 319.996C177.708 321.568 179.801 322.433 182.027 322.433C184.253 322.433 186.346 321.567 187.918 319.996L324.796 183.119C326.368 181.547 327.233 179.454 327.233 177.228C327.233 175.003 326.367 172.909 324.796 171.338L293.209 139.751C291.636 138.177 289.544 137.313 287.317 137.313Z" fill="#13ACBD"/>
<path d="M384.975 412.154C379.245 412.154 373.857 409.923 369.807 405.87L306.632 342.697C298.271 334.334 298.271 320.726 306.632 312.363L317.161 301.834C325.527 293.471 339.133 293.472 347.496 301.834L410.671 365.008C419.034 373.372 419.034 386.98 410.671 395.343L400.141 405.872C396.09 409.923 390.704 412.154 384.975 412.154ZM332.328 308.674C330.196 308.674 328.062 309.487 326.438 311.11L315.908 321.639C312.661 324.886 312.661 330.173 315.908 333.421L379.083 396.594C380.656 398.169 382.749 399.034 384.973 399.034C387.198 399.034 389.291 398.167 390.864 396.594L401.393 386.065C404.64 382.818 404.64 377.533 401.393 374.284L338.219 311.11C336.594 309.485 334.461 308.674 332.328 308.674Z" fill="#BF4404"/>
</svg>
