<?xml version="1.0" encoding="utf-8"?>
<!-- Generator: Adobe Illustrator 21.1.0, SVG Export Plug-In . SVG Version: 6.00 Build 0)  -->
<svg version="1.1" id="Слой_1" xmlns="http://www.w3.org/2000/svg" xmlns:xlink="http://www.w3.org/1999/xlink" x="0px" y="0px"
	 width="960px" height="380.333px" viewBox="0 0 960 380.333" enable-background="new 0 0 960 380.333" xml:space="preserve">
<g>
	<g>
		<g>
			<path fill="#A33904" d="M466.935,185.128c0,1.459-0.159,2.865-0.478,4.218c0.345-1.22,0.504-2.52,0.504-3.873
				C466.962,185.366,466.962,185.234,466.935,185.128z"/>
		</g>
		<g>
			<path fill="#A33904" d="M527.885,232.165c1.438,1.44,2.158,3.103,2.158,4.995c0,2.054-0.72,3.741-2.158,5.054
				c-1.438,1.316-3.225,1.974-5.362,1.974h-41.309c-2.137,0-3.926-0.718-5.362-2.158c-1.439-1.438-2.158-3.225-2.158-5.365v-71.269
				c0-2.137,0.719-3.925,2.158-5.364c1.436-1.438,3.225-2.158,5.362-2.158h41.309c2.137,0,3.925,0.677,5.362,2.034
				s2.158,3.105,2.158,5.241c0,2.056-0.699,3.721-2.096,4.995c-1.399,1.275-3.205,1.911-5.425,1.911h-33.415v20.961h27.866
				c2.137,0,3.925,0.679,5.362,2.036c1.438,1.355,2.158,3.103,2.158,5.241c0,2.054-0.699,3.72-2.096,4.995
				c-1.399,1.275-3.204,1.909-5.425,1.909h-27.866v22.812h33.415C524.66,230.007,526.447,230.727,527.885,232.165z"/>
		</g>
		<g>
			<path fill="#A33904" d="M608.763,159.847c1.233,1.316,1.85,2.958,1.85,4.932v71.886c0,2.14-0.72,3.927-2.161,5.365
				c-1.435,1.44-3.223,2.158-5.362,2.158c-1.15,0-2.28-0.184-3.388-0.554c-1.114-0.37-1.912-0.883-2.404-1.541l-45.254-57.461v52.65
				c0,1.974-0.64,3.619-1.912,4.932c-1.277,1.316-2.94,1.974-4.995,1.974c-1.974,0-3.575-0.658-4.808-1.974
				c-1.233-1.313-1.85-2.958-1.85-4.932v-71.886c0-2.137,0.718-3.925,2.158-5.364c1.435-1.438,3.225-2.158,5.362-2.158
				c1.233,0,2.445,0.246,3.637,0.74c1.192,0.493,2.075,1.152,2.653,1.973l44.883,57.214v-53.022c0-1.974,0.632-3.616,1.912-4.932
				c1.269-1.315,2.896-1.973,4.87-1.973S607.53,158.532,608.763,159.847z"/>
		</g>
		<g>
			<path fill="#A33904" d="M697.347,223.412c-3.616,6.782-8.611,12.144-14.981,16.09c-6.373,3.945-13.543,5.919-21.517,5.919
				s-15.147-1.974-21.517-5.919c-6.373-3.945-11.344-9.308-14.919-16.09c-3.578-6.782-5.365-14.243-5.365-22.382
				c0-8.137,1.787-15.598,5.365-22.38c3.575-6.781,8.546-12.146,14.919-16.091c6.37-3.945,13.543-5.918,21.517-5.918
				s15.144,1.973,21.517,5.918c6.37,3.945,11.365,9.31,14.981,16.091c3.616,6.782,5.427,14.243,5.427,22.38
				C702.774,209.169,700.964,216.63,697.347,223.412z M683.415,186.049c-2.22-4.479-5.303-8.033-9.248-10.665
				c-3.948-2.631-8.385-3.947-13.318-3.947c-5.015,0-9.476,1.295-13.38,3.885s-6.945,6.147-9.124,10.665
				c-2.179,4.523-3.267,9.538-3.267,15.043c0,5.51,1.088,10.525,3.267,15.043c2.179,4.523,5.22,8.077,9.124,10.668
				c3.904,2.588,8.365,3.883,13.38,3.883c4.932,0,9.37-1.313,13.318-3.945c3.945-2.629,7.028-6.184,9.248-10.665
				c2.217-4.482,3.329-9.474,3.329-14.984C686.744,195.525,685.633,190.53,683.415,186.049z"/>
		</g>
		<g>
			<path fill="#A33904" d="M776.786,159.724c1.518,1.398,2.28,3.081,2.28,5.055c0,1.069-0.246,2.179-0.741,3.329L747.87,239.38
				c-0.741,1.562-1.769,2.754-3.083,3.575c-1.316,0.824-2.715,1.233-4.194,1.233c-1.399-0.08-2.694-0.513-3.883-1.295
				c-1.194-0.78-2.119-1.912-2.774-3.391l-30.457-71.517c-0.412-0.821-0.617-1.85-0.617-3.083c0-2.22,0.821-4.008,2.466-5.364
				c1.642-1.356,3.329-2.035,5.054-2.035c1.399,0,2.715,0.412,3.948,1.233c1.233,0.822,2.176,2.015,2.834,3.576l24.786,58.324
				l22.688-58.324c0.658-1.48,1.604-2.631,2.837-3.453c1.233-0.821,2.546-1.233,3.945-1.233
				C773.475,157.627,775.262,158.326,776.786,159.724z"/>
		</g>
		<g>
			<path fill="#A33904" d="M838.783,237.53c0,2.137-0.699,3.883-2.096,5.241c-1.399,1.355-3.002,2.034-4.811,2.034
				c-1.479,0-2.816-0.453-4.008-1.357c-1.192-0.902-2.116-2.135-2.774-3.699l-6.411-14.919H781.94l-6.414,15.043
				c-0.575,1.562-1.458,2.774-2.65,3.637c-1.192,0.863-2.487,1.295-3.883,1.295c-2.14,0-3.761-0.575-4.87-1.725
				c-1.111-1.15-1.666-2.715-1.666-4.686c0-0.741,0.124-1.521,0.37-2.344l30.703-73.736c0.658-1.644,1.642-2.917,2.958-3.822
				c1.316-0.904,2.795-1.275,4.44-1.11c1.479,0,2.855,0.431,4.129,1.294c1.275,0.864,2.199,2.078,2.774,3.638l30.335,72.256
				C838.576,235.639,838.783,236.626,838.783,237.53z M787.981,210.648h24.662l-12.455-28.853L787.981,210.648z"/>
		</g>
		<g>
			<path fill="#A33904" d="M889.87,159.847c1.396,1.316,2.096,3.041,2.096,5.178c0,2.138-0.699,3.844-2.096,5.118
				c-1.399,1.275-3.207,1.911-5.427,1.911h-19.359v64.612c0,2.14-0.782,3.927-2.342,5.365c-1.562,1.44-3.495,2.158-5.795,2.158
				c-2.303,0-4.194-0.718-5.673-2.158c-1.479-1.438-2.217-3.225-2.217-5.365v-64.612h-19.362c-2.217,0-4.028-0.657-5.425-1.973
				c-1.399-1.313-2.096-3.04-2.096-5.178c0-2.054,0.718-3.739,2.158-5.055c1.438-1.315,3.225-1.973,5.362-1.973h54.748
				C886.663,157.874,888.471,158.532,889.87,159.847z"/>
		</g>
		<g>
			<path fill="#A33904" d="M952.509,232.306c1.435,1.44,2.158,3.103,2.158,4.995c0,2.054-0.723,3.741-2.158,5.054
				c-1.44,1.316-3.228,1.974-5.365,1.974h-41.309c-2.137,0-3.925-0.718-5.362-2.158c-1.44-1.438-2.158-3.225-2.158-5.365v-71.269
				c0-2.137,0.718-3.925,2.158-5.364c1.438-1.438,3.225-2.158,5.362-2.158h41.309c2.137,0,3.925,0.677,5.365,2.034
				c1.435,1.356,2.158,3.105,2.158,5.241c0,2.056-0.699,3.721-2.098,4.995c-1.399,1.275-3.205,1.911-5.425,1.911h-33.415v20.961
				h27.866c2.137,0,3.925,0.679,5.365,2.036c1.438,1.355,2.158,3.103,2.158,5.241c0,2.054-0.699,3.72-2.098,4.995
				c-1.396,1.275-3.204,1.909-5.425,1.909h-27.866v22.812h33.415C949.281,230.149,951.068,230.869,952.509,232.306z"/>
		</g>
		<g>
			<path fill="#A33904" d="M464.881,234.606l-0.176-0.528c-3.199-9.53-8.928-17.668-16.282-23.79
				c0.888-0.406,1.765-0.863,2.626-1.391c3.793-2.308,6.817-5.465,9.072-9.497c2.255-4.032,3.396-8.542,3.396-13.555
				c0-0.239,0-0.477-0.027-0.716c0.027-0.239,0.027-0.504,0.027-0.743c0-5.014-1.141-9.523-3.396-13.555
				c-2.255-4.032-5.279-7.189-9.072-9.497c-3.634-2.228-7.507-3.369-11.592-3.422c-0.159-0.027-0.318-0.027-0.477-0.027h-35.52
				c-2.149,0-3.926,0.716-5.358,2.149c-1.432,1.432-2.175,3.236-2.175,5.359v71.278c0,2.122,0.902,3.926,2.653,5.359
				c1.777,1.432,3.846,2.149,6.234,2.149c1.963,0,3.555-0.69,4.748-2.096c1.194-1.379,1.777-3.183,1.777-5.411v-23.927h5.65
				c15.463,0.952,28.903,11.138,33.88,25.962l0.171,0.513c1.019,3.059,3.865,4.992,6.919,4.992c0.764,0,1.543-0.122,2.308-0.378
				C464.09,242.558,466.156,238.427,464.881,234.606z M438.343,172.05c1.486,0,2.918,0.584,4.324,1.724
				c1.406,1.167,2.547,2.706,3.449,4.642c0.371,0.796,0.663,1.618,0.849,2.467c0.318,1.353,0.478,2.759,0.478,4.244
				c0.026,0.106,0.026,0.239,0.026,0.345c0,1.353-0.159,2.653-0.504,3.873c-0.186,0.849-0.477,1.671-0.849,2.467
				c-0.902,1.937-2.043,3.475-3.449,4.642c-1.406,1.141-2.838,1.724-4.324,1.724h-20.685c-1.009-0.058-2.016-0.12-3.036-0.12h-3.23
				c-0.018,0-0.035,0.005-0.053,0.005V172.05H438.343z"/>
		</g>
	</g>
	<g>
		<circle fill="#FFE42E" cx="189.867" cy="190.167" r="184.533"/>
	</g>
	<g>
		<path fill="#8BB5B5" d="M256.46,261.778l-38.082-38.082c-3.219-3.219-4.992-7.499-4.992-12.052c0-4.552,1.773-8.833,4.992-12.051
			l56.411-56.412c1.925-1.925,1.925-5.059,0-6.985L254,115.407c-0.933-0.933-2.173-1.447-3.492-1.447
			c-1.319,0-2.56,0.514-3.492,1.447l-12.695,12.695l-8.56-8.56l12.695-12.695c3.219-3.219,7.5-4.992,12.052-4.992
			s8.833,1.773,12.051,4.992l20.79,20.789c6.645,6.646,6.645,17.458,0,24.103l-56.412,56.412c-0.933,0.933-1.447,2.173-1.447,3.492
			c0,1.319,0.514,2.56,1.446,3.492l38.083,38.082L256.46,261.778z"/>
	</g>
	<g>
		<path fill="#D95612" d="M305.039,294.025l-7.772,7.772c-4.292,4.292-11.251,4.292-15.544,0l-46.631-46.631
			c-4.292-4.292-4.292-11.251,0-15.544l7.772-7.772c4.292-4.292,11.251-4.292,15.544,0l46.631,46.631
			C309.331,282.774,309.331,289.733,305.039,294.025z"/>
	</g>
	<g>
		
			<rect x="91.652" y="177.754" transform="matrix(0.7071 -0.7071 0.7071 0.7071 -104.0949 129.5398)" fill="#24BFBE" width="25.338" height="25.338"/>
	</g>
	<g>
		<path fill="#25C4C3" d="M225.184,105.364l23.316,23.316c4.29,4.29,4.29,11.254,0,15.544L147.465,245.257
			c-4.29,4.29-11.254,4.29-15.544,0l-23.316-23.316c-4.29-4.29-4.29-11.254,0-15.544L209.64,105.364
			C213.93,101.074,220.894,101.074,225.184,105.364z"/>
	</g>
	<g>
		
			<rect x="109.569" y="159.838" transform="matrix(0.7071 -0.7071 0.7071 0.7071 -86.1781 136.9612)" fill="#1DDEDD" width="25.338" height="25.338"/>
	</g>
	<g>
		<path fill="#00AFB3" d="M235.676,115.856l12.824,12.824c4.29,4.29,4.29,11.254,0,15.544L147.465,245.257
			c-4.29,4.29-11.254,4.29-15.544,0l-12.824-12.824c4.29,4.29,11.254,4.29,15.544,0L235.676,131.4
			C239.966,127.11,239.966,120.146,235.676,115.856z"/>
	</g>
	<g>
		
			<rect x="127.237" y="142.17" transform="matrix(0.7071 -0.7071 0.7071 0.7071 -68.5101 144.2795)" fill="#24BFBE" width="25.338" height="25.338"/>
	</g>
	<g>
		
			<rect x="145.153" y="124.253" transform="matrix(0.7071 -0.7071 0.7071 0.7071 -50.5934 151.7008)" fill="#1DDEDD" width="25.338" height="25.338"/>
	</g>
	<g>
		
			<rect x="163.07" y="106.336" transform="matrix(0.7071 -0.7071 0.7071 0.7071 -32.6766 159.1222)" fill="#1BCFCE" width="25.338" height="25.338"/>
	</g>
	<g>
		
			<rect x="180.987" y="88.419" transform="matrix(0.7071 -0.7071 0.7071 0.7071 -14.7598 166.5436)" fill="#24BFBE" width="25.338" height="25.338"/>
	</g>
	<g>
		
			<rect x="73.735" y="159.838" transform="matrix(0.7071 -0.7071 0.7071 0.7071 -96.6735 111.623)" fill="#1BCFCE" width="25.338" height="25.338"/>
	</g>
	<g>
		
			<rect x="109.32" y="124.253" transform="matrix(0.7071 -0.7071 0.7071 0.7071 -61.0888 126.3627)" fill="#1BCFCE" width="25.338" height="25.338"/>
	</g>
	<g>
		
			<rect x="145.153" y="88.419" transform="matrix(0.7071 -0.7071 0.7071 0.7071 -25.2552 141.2054)" fill="#34EDEB" width="25.338" height="25.338"/>
	</g>
	<g>
		
			<rect x="163.07" y="70.503" transform="matrix(0.7071 -0.7071 0.7071 0.7071 -7.3384 148.6268)" fill="#1BCFCE" width="25.338" height="25.338"/>
	</g>
	<g>
		
			<rect x="91.408" y="106.332" transform="matrix(0.7071 -0.7071 0.7071 0.7071 -53.6628 108.4478)" fill="#34EDEB" width="25.338" height="25.338"/>
	</g>
	<g>
		
			<rect x="145.158" y="52.581" transform="matrix(0.7071 -0.7071 0.7071 0.7071 0.0875 130.7119)" fill="#34EDEB" width="25.338" height="25.338"/>
	</g>
	<g>
		
			<rect x="37.906" y="124" transform="matrix(0.7071 -0.7071 0.7071 0.7071 -81.8262 75.7913)" fill="#98EDEB" width="25.338" height="25.338"/>
	</g>
	<g>
		<path fill="#B53E02" d="M290.272,263.715l6.738,6.738c4.29,4.29,4.29,11.254,0,15.544l-7.772,7.772
			c-4.29,4.29-11.254,4.29-15.544,0l-6.738-6.738c4.29,4.29,11.254,4.29,15.544,0l7.772-7.772
			C294.563,274.969,294.563,268.005,290.272,263.715z"/>
	</g>
	<g>
		
			<rect x="91.403" y="70.503" transform="matrix(0.7071 -0.7071 0.7071 0.7071 -28.3292 97.9505)" fill="#98EDEB" width="25.338" height="25.338"/>
	</g>
	<g>
		<path fill="#00A3A2" d="M240.339,120.519l8.16,8.16c4.29,4.29,4.29,11.254,0,15.544L147.465,245.257
			c-4.29,4.29-11.254,4.29-15.544,0l-8.16-8.16c4.29,4.29,11.254,4.29,15.544,0l101.034-101.034
			C244.629,131.773,244.629,124.809,240.339,120.519z"/>
	</g>
	<g>
		<path fill="#39D9D8" d="M233.344,113.525l-8.16-8.16c-4.29-4.29-11.254-4.29-15.544,0L108.606,206.398
			c-4.29,4.29-4.29,11.254,0,15.544l8.16,8.16c-4.29-4.29-4.29-11.254,0-15.544l101.034-101.034
			C222.091,109.235,229.054,109.235,233.344,113.525z"/>
	</g>
	<g>
		<path fill="#A33904" d="M296.125,269.568l8.028,8.028c4.29,4.29,4.29,11.254,0,15.544l-7.772,7.772
			c-4.29,4.29-11.254,4.29-15.544,0l-8.028-8.028c4.29,4.29,11.254,4.29,15.544,0l7.772-7.772
			C300.415,280.821,300.415,273.858,296.125,269.568z"/>
	</g>
	<g>
		<path fill="#EB6E2D" d="M265.631,239.074l-4.142-4.142c-6.438-6.438-16.877-6.438-23.316,0l0,0
			c-6.438,6.438-6.438,16.877,0,23.316l4.142,4.142c-4.29-4.29-4.29-11.254,0-15.544l7.772-7.772
			C254.378,234.784,261.341,234.784,265.631,239.074z"/>
	</g>
	<g>
		<path fill="#13ACBD" d="M139.694,253.317c-4.23,0-8.207-1.646-11.196-4.636l-23.316-23.315c-2.989-2.99-4.635-6.965-4.635-11.195
			c0-4.23,1.646-8.207,4.635-11.196L206.216,101.94c2.99-2.989,6.965-4.636,11.196-4.636s8.206,1.646,11.196,4.636l23.315,23.315
			c6.173,6.173,6.173,16.218,0,22.392L150.889,248.681C147.899,251.67,143.924,253.317,139.694,253.317z M217.412,106.989
			c-1.644,0-3.188,0.639-4.348,1.799L112.03,209.822c-1.161,1.16-1.799,2.705-1.799,4.348c0,1.643,0.639,3.188,1.799,4.348
			l23.316,23.315c1.16,1.161,2.705,1.799,4.348,1.799c1.643,0,3.188-0.639,4.348-1.799L245.076,140.8
			c1.161-1.16,1.799-2.705,1.799-4.348s-0.639-3.188-1.799-4.348l-23.315-23.315C220.6,107.627,219.056,106.989,217.412,106.989z"/>
	</g>
	<g>
		<path fill="#BF4404" d="M289.496,309.858c-4.229,0-8.206-1.647-11.196-4.638l-46.631-46.63c-6.172-6.173-6.172-16.218,0-22.391
			l7.772-7.772c6.175-6.173,16.218-6.172,22.391,0l46.631,46.631c6.173,6.174,6.173,16.218,0,22.391l-7.772,7.772
			C297.701,308.211,293.725,309.858,289.496,309.858z M250.636,233.476c-1.574,0-3.149,0.6-4.348,1.798l-7.772,7.772
			c-2.397,2.397-2.397,6.299,0,8.697l46.631,46.63c1.161,1.162,2.706,1.801,4.348,1.801c1.642,0,3.187-0.64,4.348-1.801l7.772-7.772
			c2.397-2.397,2.397-6.298,0-8.696l-46.631-46.631C253.785,234.075,252.21,233.476,250.636,233.476z"/>
	</g>
</g>
</svg>
